<?xml version="1.0" standalone="no"?>
<!DOCTYPE svg PUBLIC "-//W3C//DTD SVG 20010904//EN"
 "http://www.w3.org/TR/2001/REC-SVG-20010904/DTD/svg10.dtd">
<svg version="1.0" xmlns="http://www.w3.org/2000/svg"
 width="512.000000pt" height="512.000000pt" viewBox="0 0 512.000000 512.000000"
 preserveAspectRatio="xMidYMid meet">
<metadata>
Created by potrace 1.14, written by Peter Selinger 2001-2017
</metadata>
<g transform="translate(0.000000,512.000000) scale(0.100000,-0.100000)"
fill="#000000" stroke="none">
<path d="M2184 4801 c-98 -25 -195 -105 -272 -224 -52 -80 -87 -156 -132 -287
-19 -52 -34 -96 -35 -98 -2 -1 -36 9 -78 23 -57 19 -96 25 -160 25 -73 0 -91
-4 -145 -31 -133 -66 -232 -234 -277 -473 -66 -342 -56 -790 26 -1231 49 -265
164 -598 308 -895 28 -58 51 -106 51 -108 0 -1 -53 33 -117 76 l-118 79 0 59
c0 71 -26 114 -85 144 -46 23 -85 25 -122 6 -26 -14 -28 -13 -53 20 -88 115
-180 364 -135 364 16 0 11 40 -6 47 -29 11 -35 -11 -24 -83 17 -110 61 -211
143 -333 27 -40 29 -47 18 -76 -16 -45 -14 -73 9 -119 23 -47 72 -84 123 -93
35 -5 36 -7 62 -92 37 -118 65 -161 170 -267 103 -103 206 -175 333 -229 464
-199 708 -383 767 -578 17 -59 29 -76 67 -101 33 -22 74 -15 83 14 10 32 -11
88 -94 256 -103 208 -210 346 -325 423 l-40 26 30 2 c16 2 360 12 764 23 404
11 755 25 780 31 130 30 224 85 288 169 26 34 49 51 97 71 167 69 235 187 235
407 0 170 -33 333 -114 571 -60 172 -105 280 -193 456 -136 273 -234 415 -316
454 -79 38 -150 24 -228 -46 -29 -26 -40 -32 -35 -18 5 11 18 43 29 70 31 76
29 237 -4 326 -57 150 -119 237 -481 671 -318 384 -402 464 -554 534 -80 37
-177 51 -240 35z m114 -187 c24 -17 30 -62 10 -82 -18 -18 -63 -14 -83 8 -22
25 -13 67 18 80 30 12 30 12 55 -6z m-228 -64 c11 -11 20 -26 20 -33 0 -24
-31 -57 -55 -57 -49 0 -72 55 -38 92 21 24 48 23 73 -2z m440 -70 c11 -11 20
-26 20 -33 0 -24 -31 -57 -55 -57 -49 0 -72 55 -38 92 21 24 48 23 73 -2z
m168 -156 c24 -17 30 -62 10 -82 -7 -7 -24 -12 -38 -12 -33 0 -50 17 -50 51 0
24 30 59 50 59 3 0 16 -7 28 -16z m-452 -40 c76 -45 156 -124 250 -247 l75
-97 -73 -96 c-40 -52 -80 -104 -88 -115 -15 -19 -23 -13 -210 143 -107 90
-217 179 -243 198 -55 39 -56 53 -7 130 57 90 102 119 181 120 46 0 65 -6 115
-36z m640 -139 c15 -23 15 -27 1 -49 -20 -30 -50 -38 -76 -19 -23 16 -28 62
-9 81 21 21 66 14 84 -13z m-1332 -101 c41 -40 -7 -109 -59 -86 -14 6 -27 23
-31 37 -13 50 53 86 90 49z m239 -111 c10 -22 8 -28 -15 -48 -43 -37 -93 -13
-86 42 6 57 75 62 101 6z m1287 -4 c26 -47 -55 -96 -89 -55 -20 23 -9 69 18
83 29 14 55 4 71 -28z m-1746 15 c41 -40 -7 -109 -59 -86 -14 6 -27 23 -31 37
-13 50 53 86 90 49z m1381 -43 c94 -33 215 -128 292 -228 l25 -32 -64 -113
-63 -112 -70 -12 -70 -11 -85 77 c-47 42 -124 109 -173 149 l-87 72 87 115
c99 129 104 131 208 95z m-733 -68 c35 -32 13 -93 -34 -93 -27 0 -58 28 -58
52 0 23 34 58 57 58 9 0 25 -7 35 -17z m1263 -103 c39 -44 -21 -108 -71 -75
-26 17 -33 62 -12 83 18 18 63 14 83 -8z m-1662 -35 c72 -36 164 -104 272
-203 l58 -53 -60 -117 c-113 -216 -210 -476 -254 -677 -19 -90 -22 -143 -29
-535 -4 -239 -9 -439 -9 -445 -5 -31 -130 261 -201 470 -105 309 -161 670
-161 1037 0 308 55 492 164 548 58 30 127 22 220 -25z m599 8 c34 -31 11 -93
-35 -93 -27 0 -57 28 -57 53 0 48 56 73 92 40z m222 -166 c38 -28 13 -97 -34
-97 -28 0 -52 25 -52 55 0 30 24 55 52 55 9 0 24 -6 34 -13z m1022 -144 c8
-31 -21 -63 -56 -63 -35 0 -52 21 -48 57 6 56 90 61 104 6z m-1305 21 c71 -21
170 -75 241 -133 32 -25 58 -48 57 -51 0 -3 -19 -58 -42 -123 l-42 -118 -83
-33 c-212 -85 -364 -234 -429 -421 -28 -79 -28 -83 -27 -310 1 -281 29 -560
89 -910 8 -43 13 -80 12 -82 -5 -4 -172 110 -184 126 -6 9 -39 69 -73 134 -49
93 -61 124 -55 145 3 15 10 223 15 462 7 390 10 445 30 535 45 207 136 451
252 678 l61 117 62 0 c34 0 86 -7 116 -16z m499 -59 c19 -22 8 -68 -19 -81
-44 -22 -91 17 -76 65 11 36 70 46 95 16z m1085 -259 c19 -28 9 -58 -26 -76
-45 -25 -94 51 -57 88 21 21 66 14 83 -12z m-860 -26 c23 -25 13 -67 -20 -82
-52 -23 -100 46 -59 86 21 22 57 20 79 -4z m1083 -208 c16 -21 15 -33 -4 -60
-17 -24 -62 -30 -82 -10 -7 7 -12 24 -12 39 0 52 65 72 98 31z m-746 -39 c34
-31 11 -93 -35 -93 -27 0 -57 28 -57 53 0 48 56 73 92 40z m256 -189 c41 -29
19 -94 -33 -94 -51 0 -71 54 -35 90 24 24 38 25 68 4z m562 -114 c38 -38 18
-90 -35 -90 -75 0 -68 103 8 109 4 1 16 -8 27 -19z m-410 -220 c24 -24 25 -38
4 -68 -16 -24 -44 -28 -75 -12 -38 21 -13 100 33 100 10 0 27 -9 38 -20z m580
-60 c24 -24 25 -38 4 -68 -20 -28 -69 -30 -84 -3 -16 31 -12 59 12 75 30 21
44 20 68 -4z m-362 -183 c17 -13 15 -62 -2 -76 -25 -21 -69 -9 -86 22 -14 27
-14 29 13 52 27 24 46 24 75 2z m438 -222 c33 -50 -20 -104 -71 -71 -27 18
-34 63 -13 84 21 21 66 14 84 -13z m-302 -151 c33 -32 10 -94 -35 -94 -21 0
-59 33 -59 53 0 46 62 73 94 41z m176 -174 c54 -29 40 -100 -20 -100 -29 0
-30 1 -30 49 0 43 5 54 28 60 2 1 12 -4 22 -9z m-205 -190 c41 -46 -29 -116
-75 -75 -24 22 -26 58 -4 79 21 22 57 20 79 -4z"/>
</g>
</svg>
